<svg xmlns="http://www.w3.org/2000/svg" width="256" height="256" viewBox="0 0 256 256" role="img" aria-labelledby="title desc">
  <title id="title">GPS icon</title>
  <desc id="desc">A ghost run shown through a player camera.</desc>
  <defs>
    <linearGradient id="accent" x1="42" y1="42" x2="216" y2="216" gradientUnits="userSpaceOnUse">
      <stop stop-color="#ff70d2"/>
      <stop offset="1" stop-color="#7647ff"/>
    </linearGradient>
    <linearGradient id="lens" x1="146" y1="94" x2="205" y2="153" gradientUnits="userSpaceOnUse">
      <stop stop-color="#9af1ff"/>
      <stop offset="1" stop-color="#20a8ff"/>
    </linearGradient>
    <filter id="shadow" x="-20%" y="-20%" width="140%" height="140%">
      <feDropShadow dx="0" dy="8" stdDeviation="10" flood-color="#000000" flood-opacity="0.35"/>
    </filter>
  </defs>
  <rect x="24" y="24" width="208" height="208" rx="48" fill="#171820"/>
  <rect x="24" y="24" width="208" height="208" rx="48" fill="url(#accent)" opacity="0.62"/>
  <g filter="url(#shadow)">
    <path d="M53 76h41l12-15h35l12 15h48c10 0 18 8 18 18v72c0 10-8 18-18 18H53c-10 0-18-8-18-18V94c0-10 8-18 18-18z" fill="#171820" stroke="#f7f2ff" stroke-width="7" stroke-linejoin="round"/>
    <circle cx="177" cy="126" r="31" fill="url(#lens)" stroke="#f7f2ff" stroke-width="6"/>
    <circle cx="177" cy="126" r="16" fill="#171820"/>
    <circle cx="183" cy="120" r="5" fill="#f7f2ff"/>
    <path d="M56 194v-70c0-29 19-48 46-48s46 19 46 48v70l-15-11-15 11-16-11-15 11-16-11z" fill="#f7f2ff" stroke="#171820" stroke-width="4" stroke-linejoin="round"/>
    <circle cx="85" cy="123" r="8" fill="#171820"/>
    <circle cx="119" cy="123" r="8" fill="#171820"/>
    <path d="M82 151c11 8 29 8 40 0" fill="none" stroke="#171820" stroke-width="5" stroke-linecap="round"/>
  </g>
</svg>
