<svg xmlns="http://www.w3.org/2000/svg" viewBox="0 0 256 256" role="img" aria-labelledby="title desc">
  <title id="title">Music Volume icon</title>
  <desc id="desc">A music note with vertical volume bars.</desc>
  <defs>
    <linearGradient id="accent" x1="44" y1="44" x2="214" y2="214" gradientUnits="userSpaceOnUse">
      <stop stop-color="#9a9a9a"/>
      <stop offset="1" stop-color="#404040"/>
    </linearGradient>
    <filter id="shadow" x="-20%" y="-20%" width="140%" height="140%">
      <feDropShadow dx="0" dy="8" stdDeviation="10" flood-color="#000000" flood-opacity="0.35"/>
    </filter>
  </defs>
  <rect x="24" y="24" width="208" height="208" rx="48" fill="#171820"/>
  <rect x="24" y="24" width="208" height="208" rx="48" fill="url(#accent)" opacity="0.58"/>
  <g filter="url(#shadow)">
    <path d="M95 78v86c0 17-14 31-31 31-12 0-21-7-21-17 0-13 14-23 31-23 5 0 10 1 14 3V91l78-18v79c0 17-14 31-31 31-12 0-21-7-21-17 0-13 14-23 31-23 5 0 10 1 14 3V63z" fill="#f7f2ff"/>
    <path d="M190 94v70M211 117v47" stroke="url(#accent)" stroke-width="8" stroke-linecap="round"/>
  </g>
</svg>
