<svg xmlns="http://www.w3.org/2000/svg" viewBox="0 0 256 256" role="img" aria-labelledby="title desc">
  <title id="title">Cam2 icon</title>
  <desc id="desc">A second external player camera icon with an offset chase view.</desc>
  <defs>
    <linearGradient id="accent" x1="44" y1="44" x2="214" y2="214" gradientUnits="userSpaceOnUse">
      <stop stop-color="#ffd08a"/>
      <stop offset="1" stop-color="#ff8000"/>
    </linearGradient>
    <linearGradient id="cameraAccent" x1="126" y1="80" x2="205" y2="145" gradientUnits="userSpaceOnUse">
      <stop stop-color="#8ee8ff"/>
      <stop offset="1" stop-color="#22aaff"/>
    </linearGradient>
    <filter id="shadow" x="-20%" y="-20%" width="140%" height="140%">
      <feDropShadow dx="0" dy="8" stdDeviation="10" flood-color="#000000" flood-opacity="0.35"/>
    </filter>
  </defs>
  <rect x="24" y="24" width="208" height="208" rx="48" fill="#171820"/>
  <rect x="24" y="24" width="208" height="208" rx="48" fill="url(#accent)" opacity="0.18"/>
  <g filter="url(#shadow)">
    <path d="M47 151l28-51h106l28 51v34H47z" fill="none" stroke="#f7f2ff" stroke-width="7.5" stroke-linejoin="round"/>
    <circle cx="81" cy="187" r="14" fill="#f7f2ff"/>
    <circle cx="175" cy="187" r="14" fill="#f7f2ff"/>
    <path d="M132 91h38l10-12h23c7 0 12 5 12 12v35c0 7-5 12-12 12h-71c-7 0-12-5-12-12v-23c0-7 5-12 12-12z" fill="url(#cameraAccent)" stroke="#f7f2ff" stroke-width="4" stroke-linejoin="round"/>
    <circle cx="168" cy="116" r="18" fill="#171820"/>
    <circle cx="168" cy="116" r="9" fill="url(#cameraAccent)"/>
    <circle cx="172" cy="112" r="3.5" fill="#f7f2ff"/>
    <path d="M132 101h22" stroke="#f7f2ff" stroke-width="3.5" stroke-linecap="round"/>
    <path d="M122 131l-35 27" stroke="url(#accent)" stroke-width="5" stroke-linecap="round"/>
    <path d="M87 131v27l29-5" fill="none" stroke="url(#accent)" stroke-width="4" stroke-linecap="round" stroke-linejoin="round"/>
    <circle cx="62" cy="80" r="26" fill="url(#accent)"/>
    <text x="62" y="95" text-anchor="middle" font-family="Arial, sans-serif" font-size="42" font-weight="900" fill="#171820">2</text>
  </g>
</svg>
