<svg xmlns="http://www.w3.org/2000/svg" viewBox="0 0 256 256" role="img" aria-labelledby="title desc">
  <title id="title">CamSpectator icon</title>
  <desc id="desc">A spectator camera icon focused on binoculars above a viewing rail.</desc>
  <defs>
    <linearGradient id="accent" x1="44" y1="44" x2="214" y2="214" gradientUnits="userSpaceOnUse">
      <stop stop-color="#ffd08a"/>
      <stop offset="1" stop-color="#ff8000"/>
    </linearGradient>
    <filter id="shadow" x="-20%" y="-20%" width="140%" height="140%">
      <feDropShadow dx="0" dy="8" stdDeviation="10" flood-color="#000000" flood-opacity="0.35"/>
    </filter>
  </defs>
  <rect x="24" y="24" width="208" height="208" rx="48" fill="#171820"/>
  <rect x="24" y="24" width="208" height="208" rx="48" fill="url(#accent)" opacity="0.18"/>
  <g filter="url(#shadow)">
    <path d="M59 183h138M73 199h110" stroke="#f7f2ff" stroke-width="5" stroke-linecap="round"/>
    <path d="M86 183v20M128 183v20M170 183v20" stroke="url(#accent)" stroke-width="4" stroke-linecap="round"/>
    <path d="M79 93l18-25h62l18 25" fill="none" stroke="url(#accent)" stroke-width="5" stroke-linecap="round" stroke-linejoin="round"/>
    <path d="M93 105h70c17 0 31 14 31 31s-14 31-31 31c-15 0-27-10-30-24h-10c-3 14-15 24-30 24-17 0-31-14-31-31s14-31 31-31z" fill="#f7f2ff"/>
    <circle cx="94" cy="137" r="23" fill="#171820"/>
    <circle cx="162" cy="137" r="23" fill="#171820"/>
    <circle cx="94" cy="137" r="10" fill="url(#accent)"/>
    <circle cx="162" cy="137" r="10" fill="url(#accent)"/>
    <path d="M118 122h20" stroke="#171820" stroke-width="5" stroke-linecap="round"/>
  </g>
</svg>
