<svg xmlns="http://www.w3.org/2000/svg" viewBox="0 0 256 256" role="img" aria-labelledby="title desc">
  <title id="title">Player Camera icon</title>
  <desc id="desc">A player camera icon showing a camera tracking a player car.</desc>
  <defs>
    <linearGradient id="accent" x1="44" y1="44" x2="214" y2="214" gradientUnits="userSpaceOnUse">
      <stop stop-color="#ffd08a"/>
      <stop offset="1" stop-color="#ff8000"/>
    </linearGradient>
    <linearGradient id="cameraAccent" x1="62" y1="77" x2="147" y2="149" gradientUnits="userSpaceOnUse">
      <stop stop-color="#8ee8ff"/>
      <stop offset="1" stop-color="#22aaff"/>
    </linearGradient>
    <filter id="shadow" x="-20%" y="-20%" width="140%" height="140%">
      <feDropShadow dx="0" dy="8" stdDeviation="10" flood-color="#000000" flood-opacity="0.35"/>
    </filter>
  </defs>
  <rect x="24" y="24" width="208" height="208" rx="48" fill="#171820"/>
  <rect x="24" y="24" width="208" height="208" rx="48" fill="url(#accent)" opacity="0.58"/>
  <g filter="url(#shadow)">
    <path d="M47 151l28-51h106l28 51v34H47z" fill="none" stroke="#f7f2ff" stroke-width="7.5" stroke-linejoin="round"/>
    <circle cx="81" cy="187" r="14" fill="#f7f2ff"/>
    <circle cx="175" cy="187" r="14" fill="#f7f2ff"/>
    <path d="M68 82h39l10-13h24c7 0 12 5 12 12v36c0 7-5 12-12 12H68c-7 0-12-5-12-12V94c0-7 5-12 12-12z" fill="url(#cameraAccent)" stroke="#f7f2ff" stroke-width="4" stroke-linejoin="round"/>
    <circle cx="105" cy="107" r="18" fill="#171820"/>
    <circle cx="105" cy="107" r="9" fill="url(#cameraAccent)"/>
    <circle cx="109" cy="103" r="3.5" fill="#f7f2ff"/>
    <path d="M68 92h22" stroke="#f7f2ff" stroke-width="3.5" stroke-linecap="round"/>
    <path d="M131 128l25 25" stroke="url(#accent)" stroke-width="5" stroke-linecap="round"/>
    <path d="M151 132l5 21-21-5" fill="none" stroke="url(#accent)" stroke-width="4" stroke-linecap="round" stroke-linejoin="round"/>
    <circle cx="198" cy="72" r="26" fill="url(#accent)"/>
    <text x="198" y="87" text-anchor="middle" font-family="Arial, sans-serif" font-size="40" font-weight="900" fill="#171820">P</text>
  </g>
</svg>
