<svg xmlns="http://www.w3.org/2000/svg" viewBox="0 0 256 256" role="img" aria-labelledby="title desc">
  <title id="title">CamDefault icon</title>
  <desc id="desc">A default player camera icon with a centered follow camera over the car.</desc>
  <defs>
    <linearGradient id="accent" x1="44" y1="44" x2="214" y2="214" gradientUnits="userSpaceOnUse">
      <stop stop-color="#ffd08a"/>
      <stop offset="1" stop-color="#ff8000"/>
    </linearGradient>
    <linearGradient id="cameraAccent" x1="81" y1="67" x2="176" y2="148" gradientUnits="userSpaceOnUse">
      <stop stop-color="#8ee8ff"/>
      <stop offset="1" stop-color="#22aaff"/>
    </linearGradient>
    <filter id="shadow" x="-20%" y="-20%" width="140%" height="140%">
      <feDropShadow dx="0" dy="8" stdDeviation="10" flood-color="#000000" flood-opacity="0.35"/>
    </filter>
  </defs>
  <rect x="24" y="24" width="208" height="208" rx="48" fill="#171820"/>
  <rect x="24" y="24" width="208" height="208" rx="48" fill="url(#accent)" opacity="0.58"/>
  <g filter="url(#shadow)">
    <path d="M47 151l28-51h106l28 51v34H47z" fill="none" stroke="#f7f2ff" stroke-width="7.5" stroke-linejoin="round"/>
    <circle cx="81" cy="187" r="14" fill="#f7f2ff"/>
    <circle cx="175" cy="187" r="14" fill="#f7f2ff"/>
    <path d="M89 76h42l11-14h27c7 0 13 6 13 13v38c0 7-6 13-13 13H89c-7 0-13-6-13-13V89c0-7 6-13 13-13z" fill="url(#cameraAccent)" stroke="#f7f2ff" stroke-width="4" stroke-linejoin="round"/>
    <circle cx="129" cy="101" r="20" fill="#171820"/>
    <circle cx="129" cy="101" r="10" fill="url(#cameraAccent)"/>
    <circle cx="133" cy="97" r="3.5" fill="#f7f2ff"/>
    <path d="M90 86h24" stroke="#f7f2ff" stroke-width="3.5" stroke-linecap="round"/>
    <path d="M128 131v27" stroke="url(#accent)" stroke-width="5" stroke-linecap="round"/>
    <path d="M110 143l18 18 18-18" fill="none" stroke="url(#accent)" stroke-width="4.5" stroke-linecap="round" stroke-linejoin="round"/>
    <circle cx="128" cy="164" r="12" fill="#171820" stroke="url(#accent)" stroke-width="3.5"/>
    <circle cx="198" cy="72" r="26" fill="url(#accent)"/>
    <text x="198" y="87" text-anchor="middle" font-family="Arial, sans-serif" font-size="39" font-weight="900" fill="#171820">D</text>
  </g>
</svg>
