<svg xmlns="http://www.w3.org/2000/svg" viewBox="0 0 256 256" role="img" aria-labelledby="title desc">
  <title id="title">Cam3 icon</title>
  <desc id="desc">An internal cockpit player camera icon.</desc>
  <defs>
    <linearGradient id="accent" x1="44" y1="44" x2="214" y2="214" gradientUnits="userSpaceOnUse">
      <stop stop-color="#ffd08a"/>
      <stop offset="1" stop-color="#ff8000"/>
    </linearGradient>
    <linearGradient id="cameraAccent" x1="93" y1="104" x2="166" y2="163" gradientUnits="userSpaceOnUse">
      <stop stop-color="#8ee8ff"/>
      <stop offset="1" stop-color="#22aaff"/>
    </linearGradient>
    <filter id="shadow" x="-20%" y="-20%" width="140%" height="140%">
      <feDropShadow dx="0" dy="8" stdDeviation="10" flood-color="#000000" flood-opacity="0.35"/>
    </filter>
  </defs>
  <rect x="24" y="24" width="208" height="208" rx="48" fill="#171820"/>
  <rect x="24" y="24" width="208" height="208" rx="48" fill="url(#accent)" opacity="0.18"/>
  <g filter="url(#shadow)">
    <path d="M47 151l28-51h106l28 51v34H47z" fill="none" stroke="#f7f2ff" stroke-width="7.5" stroke-linejoin="round"/>
    <circle cx="81" cy="187" r="14" fill="#f7f2ff"/>
    <circle cx="175" cy="187" r="14" fill="#f7f2ff"/>
    <path d="M93 122h39l10-13h24c7 0 12 5 12 12v38c0 7-5 12-12 12H93c-7 0-12-5-12-12v-25c0-7 5-12 12-12z" fill="url(#cameraAccent)" stroke="#f7f2ff" stroke-width="4" stroke-linejoin="round"/>
    <circle cx="130" cy="148" r="22" fill="#171820"/>
    <circle cx="130" cy="148" r="11" fill="url(#cameraAccent)"/>
    <circle cx="134" cy="144" r="4" fill="#f7f2ff"/>
    <path d="M92 131h24" stroke="#f7f2ff" stroke-width="3.5" stroke-linecap="round"/>
    <path d="M128 76v31M108 96l20-20 20 20" fill="none" stroke="url(#accent)" stroke-width="5" stroke-linecap="round" stroke-linejoin="round"/>
    <circle cx="197" cy="70" r="26" fill="url(#accent)"/>
    <text x="197" y="85" text-anchor="middle" font-family="Arial, sans-serif" font-size="42" font-weight="900" fill="#171820">3</text>
  </g>
</svg>
