<svg xmlns="http://www.w3.org/2000/svg" viewBox="0 0 256 256" role="img" aria-labelledby="title desc">
  <title id="title">Cam1 icon</title>
  <desc id="desc">An external player camera icon with a rear chase view.</desc>
  <defs>
    <linearGradient id="accent" x1="44" y1="44" x2="214" y2="214" gradientUnits="userSpaceOnUse">
      <stop stop-color="#ffd08a"/>
      <stop offset="1" stop-color="#ff8000"/>
    </linearGradient>
    <linearGradient id="cameraAccent" x1="58" y1="72" x2="128" y2="132" gradientUnits="userSpaceOnUse">
      <stop stop-color="#8ee8ff"/>
      <stop offset="1" stop-color="#22aaff"/>
    </linearGradient>
    <filter id="shadow" x="-20%" y="-20%" width="140%" height="140%">
      <feDropShadow dx="0" dy="8" stdDeviation="10" flood-color="#000000" flood-opacity="0.35"/>
    </filter>
  </defs>
  <rect x="24" y="24" width="208" height="208" rx="48" fill="#171820"/>
  <rect x="24" y="24" width="208" height="208" rx="48" fill="url(#accent)" opacity="0.18"/>
  <g filter="url(#shadow)">
    <path d="M47 151l28-51h106l28 51v34H47z" fill="none" stroke="#f7f2ff" stroke-width="7.5" stroke-linejoin="round"/>
    <circle cx="81" cy="187" r="14" fill="#f7f2ff"/>
    <circle cx="175" cy="187" r="14" fill="#f7f2ff"/>
    <path d="M56 84h36l10-12h23c7 0 12 5 12 12v35c0 7-5 12-12 12H56c-7 0-12-5-12-12V96c0-7 5-12 12-12z" fill="url(#cameraAccent)" stroke="#f7f2ff" stroke-width="4" stroke-linejoin="round"/>
    <circle cx="91" cy="108" r="18" fill="#171820"/>
    <circle cx="91" cy="108" r="9" fill="url(#cameraAccent)"/>
    <circle cx="95" cy="104" r="3.5" fill="#f7f2ff"/>
    <path d="M56 94h22" stroke="#f7f2ff" stroke-width="3.5" stroke-linecap="round"/>
    <path d="M131 125l35 31" stroke="url(#accent)" stroke-width="5" stroke-linecap="round"/>
    <path d="M157 127l9 29-30-7" fill="none" stroke="url(#accent)" stroke-width="4" stroke-linecap="round" stroke-linejoin="round"/>
    <circle cx="199" cy="75" r="26" fill="url(#accent)"/>
    <text x="199" y="90" text-anchor="middle" font-family="Arial, sans-serif" font-size="44" font-weight="900" fill="#171820">1</text>
  </g>
</svg>
