<svg xmlns="http://www.w3.org/2000/svg" viewBox="0 0 256 256" role="img" aria-labelledby="title desc">
  <title id="title">CamFree icon</title>
  <desc id="desc">A free camera icon with a movable crosshair frame.</desc>
  <defs>
    <linearGradient id="accent" x1="44" y1="44" x2="214" y2="214" gradientUnits="userSpaceOnUse">
      <stop stop-color="#ffd08a"/>
      <stop offset="1" stop-color="#ff8000"/>
    </linearGradient>
    <filter id="shadow" x="-20%" y="-20%" width="140%" height="140%">
      <feDropShadow dx="0" dy="8" stdDeviation="10" flood-color="#000000" flood-opacity="0.35"/>
    </filter>
  </defs>
  <rect x="24" y="24" width="208" height="208" rx="48" fill="#171820"/>
  <rect x="24" y="24" width="208" height="208" rx="48" fill="url(#accent)" opacity="0.18"/>
  <g filter="url(#shadow)">
    <path d="M79 71h44l12-15h28c9 0 16 7 16 16v48c0 9-7 16-16 16H79c-9 0-16-7-16-16V87c0-9 7-16 16-16z" fill="#f7f2ff"/>
    <circle cx="124" cy="105" r="23" fill="#171820"/>
    <circle cx="124" cy="105" r="11" fill="url(#accent)"/>
    <path d="M150 178h60M180 148v60" stroke="#f7f2ff" stroke-width="3.5" stroke-linecap="round"/>
    <circle cx="180" cy="178" r="24" fill="none" stroke="url(#accent)" stroke-width="4"/>
    <path d="M152 168l-12 10 12 10M208 168l12 10-12 10M170 150l10-12 10 12M170 206l10 12 10-12" fill="none" stroke="url(#accent)" stroke-width="3.5" stroke-linecap="round" stroke-linejoin="round"/>
  </g>
</svg>
