<svg xmlns="http://www.w3.org/2000/svg" viewBox="0 0 256 256" role="img" aria-labelledby="title desc">
  <title id="title">CamHelico icon</title>
  <desc id="desc">A helicopter camera icon with overhead rotors.</desc>
  <defs>
    <linearGradient id="accent" x1="44" y1="44" x2="214" y2="214" gradientUnits="userSpaceOnUse">
      <stop stop-color="#ffd08a"/>
      <stop offset="1" stop-color="#ff8000"/>
    </linearGradient>
    <filter id="shadow" x="-20%" y="-20%" width="140%" height="140%">
      <feDropShadow dx="0" dy="8" stdDeviation="10" flood-color="#000000" flood-opacity="0.35"/>
    </filter>
  </defs>
  <rect x="24" y="24" width="208" height="208" rx="48" fill="#171820"/>
  <rect x="24" y="24" width="208" height="208" rx="48" fill="url(#accent)" opacity="0.58"/>
  <g filter="url(#shadow)">
    <path d="M128 61v99" stroke="#f7f2ff" stroke-width="5" stroke-linecap="round"/>
    <path d="M67 65h122" stroke="url(#accent)" stroke-width="7" stroke-linecap="round"/>
    <path d="M91 48h74" stroke="#f7f2ff" stroke-width="4" stroke-linecap="round"/>
    <path d="M82 116h75c18 0 32 14 32 32v11c0 8-6 14-14 14H82c-15 0-28-12-28-28v-1c0-15 13-28 28-28z" fill="#f7f2ff"/>
    <circle cx="112" cy="145" r="24" fill="#171820"/>
    <circle cx="112" cy="145" r="12" fill="url(#accent)"/>
    <path d="M188 139h27l16 15h-43z" fill="#f7f2ff"/>
    <path d="M75 173l-14 24M159 173l14 24M61 197h129" stroke="url(#accent)" stroke-width="5" stroke-linecap="round"/>
  </g>
</svg>
